<?xml version="1.0" encoding="iso-8859-1"?>
<!-- Generator: Adobe Illustrator 19.0.0, SVG Export Plug-In . SVG Version: 6.00 Build 0)  -->
<svg version="1.1" id="Layer_1" xmlns="http://www.w3.org/2000/svg" xmlns:xlink="http://www.w3.org/1999/xlink" x="0px" y="0px"
	 viewBox="0 0 512 512" style="enable-background:new 0 0 512 512;" xml:space="preserve">
<g>
	<g>
		<path d="M256,0C114.837,0,0,114.837,0,256s114.837,256,256,256s256-114.837,256-256S397.163,0,256,0z M341.333,128
			C364.907,128,384,147.115,384,170.667c0,23.573-19.093,42.667-42.667,42.667c-23.573,0-42.667-19.093-42.667-42.667
			C298.667,147.115,317.76,128,341.333,128z M170.667,128c23.573,0,42.667,19.115,42.667,42.667
			c0,23.573-19.093,42.667-42.667,42.667c-23.573,0-42.667-19.093-42.667-42.667C128,147.115,147.093,128,170.667,128z M384,362.667
			H128c-11.797,0-21.333-9.557-21.333-21.333s9.536-21.333,21.333-21.333h256c11.797,0,21.333,9.557,21.333,21.333
			C405.333,353.109,395.797,362.667,384,362.667z"/>
	</g>
</g>
<g>
</g>
<g>
</g>
<g>
</g>
<g>
</g>
<g>
</g>
<g>
</g>
<g>
</g>
<g>
</g>
<g>
</g>
<g>
</g>
<g>
</g>
<g>
</g>
<g>
</g>
<g>
</g>
<g>
</g>
</svg>
