<?xml version="1.0" encoding="iso-8859-1"?>
<!-- Generator: Adobe Illustrator 19.0.0, SVG Export Plug-In . SVG Version: 6.00 Build 0)  -->
<svg version="1.1" id="Layer_1" xmlns="http://www.w3.org/2000/svg" xmlns:xlink="http://www.w3.org/1999/xlink" x="0px" y="0px"
	 viewBox="0 0 512 512" style="enable-background:new 0 0 512 512;" xml:space="preserve">
<g>
	<g>
		<path d="M256,0C114.837,0,0,114.837,0,256s114.837,256,256,256c141.141,0,256-114.837,256-256S397.141,0,256,0z M341.333,128
			C364.885,128,384,147.093,384,170.667c0,23.552-19.115,42.667-42.667,42.667c-23.573,0-42.667-19.115-42.667-42.667
			C298.667,147.093,317.76,128,341.333,128z M170.667,128c23.552,0,42.667,19.093,42.667,42.667
			c0,23.552-19.115,42.667-42.667,42.667c-23.573,0-42.667-19.115-42.667-42.667C128,147.093,147.093,128,170.667,128z
			 M383.595,382.549c-10.965,4.224-23.339-1.301-27.541-12.309c-16.107-42.133-57.259-71.573-100.053-71.573
			c-42.837,0-83.989,29.44-100.096,71.616c-3.243,8.512-11.349,13.739-19.925,13.739c-2.539,0-5.099-0.469-7.595-1.429
			c-11.008-4.181-16.533-16.512-12.331-27.52C138.304,296.747,195.861,256,256,256c60.096,0,117.632,40.725,139.904,99.008
			C400.107,366.016,394.603,378.347,383.595,382.549z"/>
	</g>
</g>
<g>
</g>
<g>
</g>
<g>
</g>
<g>
</g>
<g>
</g>
<g>
</g>
<g>
</g>
<g>
</g>
<g>
</g>
<g>
</g>
<g>
</g>
<g>
</g>
<g>
</g>
<g>
</g>
<g>
</g>
</svg>
