<?xml version="1.0" encoding="iso-8859-1"?>
<!-- Generator: Adobe Illustrator 19.0.0, SVG Export Plug-In . SVG Version: 6.00 Build 0)  -->
<svg version="1.1" id="Layer_1" xmlns="http://www.w3.org/2000/svg" xmlns:xlink="http://www.w3.org/1999/xlink" x="0px" y="0px"
	 viewBox="0 0 512 512" style="enable-background:new 0 0 512 512;" xml:space="preserve">
<g>
	<g>
		<path d="M490.667,68.784H448V37.893c0-6.997-3.435-13.547-9.173-17.536c-5.781-3.989-13.099-4.907-19.648-2.453L256,79.109
			L92.821,17.904c-6.549-2.453-13.867-1.536-19.648,2.453C67.435,24.346,64,30.896,64,37.893v31.381l-42.411-0.491
			c-5.333-0.085-11.2,2.155-15.253,6.165S0,84.421,0,90.117v384c0,11.776,9.557,21.333,21.333,21.333h469.333
			c11.776,0,21.333-9.557,21.333-21.333v-384C512,78.341,502.443,68.784,490.667,68.784z M42.667,452.784V111.706L64,111.941
			v298.176c0,2.219,0.341,4.395,1.003,6.421c0.405,1.301,1.131,2.432,1.771,3.627c0.363,0.683,0.576,1.451,1.024,2.091
			c2.411,3.499,5.888,6.272,10.048,7.851l17.771,6.656l42.688,16.021H42.667z M211.093,355.653
			c-3.755,7.488-11.285,11.797-19.115,11.797c-3.2,0-6.464-0.725-9.515-2.24l-42.667-21.333
			c-10.539-5.291-14.827-18.091-9.557-28.629c5.291-10.539,18.069-14.827,28.629-9.557l42.667,21.333
			C212.075,332.314,216.363,345.114,211.093,355.653z M211.093,270.32c-3.755,7.488-11.285,11.797-19.115,11.797
			c-3.2,0-6.464-0.725-9.515-2.24l-42.667-21.333c-10.539-5.291-14.827-18.091-9.557-28.629
			c5.291-10.539,18.069-14.827,28.629-9.557l42.667,21.333C212.075,246.981,216.363,259.781,211.093,270.32z M211.093,184.986
			c-3.755,7.488-11.285,11.797-19.115,11.797c-3.2,0-6.464-0.725-9.515-2.24l-42.667-21.333
			c-10.539-5.291-14.827-18.091-9.557-28.629c5.291-10.517,18.069-14.827,28.629-9.557l42.667,21.333
			C212.075,161.648,216.363,174.448,211.093,184.986z M310.464,156.357l42.667-21.333c10.539-5.269,23.339-0.96,28.629,9.557
			c5.269,10.539,0.981,23.339-9.557,28.629l-42.667,21.333c-3.051,1.515-6.315,2.24-9.515,2.24c-7.829,0-15.36-4.309-19.115-11.797
			C295.637,174.448,299.925,161.648,310.464,156.357z M310.464,241.69l42.667-21.333c10.539-5.269,23.339-0.981,28.629,9.557
			c5.269,10.539,0.981,23.339-9.557,28.629l-42.667,21.333c-3.051,1.515-6.315,2.24-9.515,2.24c-7.829,0-15.36-4.309-19.115-11.797
			C295.637,259.781,299.925,246.981,310.464,241.69z M329.536,365.21c-3.051,1.515-6.315,2.24-9.515,2.24
			c-7.829,0-15.36-4.309-19.115-11.797c-5.269-10.539-0.981-23.339,9.557-28.629l42.667-21.333
			c10.539-5.269,23.339-0.981,28.629,9.557c5.269,10.539,0.981,23.339-9.557,28.629L329.536,365.21z M469.333,452.784h-95.595
			l48.811-18.325l11.605-4.352c4.16-1.579,7.637-4.352,10.048-7.851c0.448-0.64,0.661-1.408,1.024-2.091
			c0.64-1.195,1.365-2.325,1.771-3.627c0.661-2.027,1.003-4.203,1.003-6.421V111.45h21.333V452.784z"/>
	</g>
</g>
<g>
</g>
<g>
</g>
<g>
</g>
<g>
</g>
<g>
</g>
<g>
</g>
<g>
</g>
<g>
</g>
<g>
</g>
<g>
</g>
<g>
</g>
<g>
</g>
<g>
</g>
<g>
</g>
<g>
</g>
</svg>
